<svg width="39" height="39" viewBox="0 0 39 39" fill="none" xmlns="http://www.w3.org/2000/svg">
<path d="M11.0178 15.1149L19.5 20.0281L27.9181 15.1469" stroke="#143127" stroke-width="1.5" stroke-linecap="round" stroke-linejoin="round"/>
<path d="M19.5 28.7343V20.0121" stroke="#143127" stroke-width="1.5" stroke-linecap="round" stroke-linejoin="round"/>
<path d="M17.5155 10.3617L12.3942 13.2104C11.2419 13.8505 10.2816 15.467 10.2816 16.7953V22.2207C10.2816 23.549 11.2259 25.1654 12.3942 25.8056L17.5155 28.6543C18.6038 29.2625 20.3962 29.2625 21.5005 28.6543L26.6218 25.8056C27.7741 25.1654 28.7343 23.549 28.7343 22.2207V16.7793C28.7343 15.451 27.7901 13.8345 26.6218 13.1944L21.5005 10.3456C20.3962 9.73749 18.6038 9.73749 17.5155 10.3617Z" stroke="#143127" stroke-width="1.5" stroke-linecap="round" stroke-linejoin="round"/>
<path d="M35.5041 24.3012C35.5041 30.4948 30.4949 35.5041 24.3013 35.5041L25.9817 32.7034" stroke="#143127" stroke-width="1.5" stroke-linecap="round" stroke-linejoin="round"/>
<path d="M3.49591 14.6987C3.49591 8.50516 8.50519 3.49588 14.6988 3.49588L13.0184 6.2966" stroke="#143127" stroke-width="1.5" stroke-linecap="round" stroke-linejoin="round"/>
</svg>
