<svg width="39" height="39" viewBox="0 0 39 39" fill="none" xmlns="http://www.w3.org/2000/svg">
<path d="M5.36829 12.2022L19.4999 20.3802L33.5355 12.2501" stroke="#143127" stroke-width="1.5" stroke-linecap="round" stroke-linejoin="round"/>
<path d="M19.4999 34.88V20.3642" stroke="#143127" stroke-width="1.5" stroke-linecap="round" stroke-linejoin="round"/>
<path d="M34.8798 14.9709V24.0293C34.8798 24.1093 34.8799 24.1732 34.8639 24.2532C33.7436 23.277 32.3032 22.7009 30.7028 22.7009C29.1984 22.7009 27.806 23.229 26.7018 24.1093C25.2294 25.2776 24.3011 27.086 24.3011 29.1025C24.3011 30.3028 24.6372 31.4391 25.2294 32.3994C25.3734 32.6554 25.5494 32.8955 25.7415 33.1196L22.8128 34.736C20.9883 35.7603 18.0115 35.7603 16.187 34.736L7.64087 29.9988C5.70437 28.9265 4.12 26.2378 4.12 24.0293V14.9709C4.12 12.7623 5.70437 10.0737 7.64087 9.00139L16.187 4.26414C18.0115 3.23988 20.9883 3.23988 22.8128 4.26414L31.359 9.00139C33.2954 10.0737 34.8798 12.7623 34.8798 14.9709Z" stroke="#143127" stroke-width="1.5" stroke-linecap="round" stroke-linejoin="round"/>
<path d="M37.1044 29.1025C37.1044 30.3028 36.7684 31.4391 36.1762 32.3993C35.8401 32.9755 35.408 33.4876 34.9119 33.9037C33.7916 34.912 32.3192 35.5041 30.7028 35.5041C28.3662 35.5041 26.3336 34.2558 25.2294 32.3993C24.6372 31.4391 24.3011 30.3028 24.3011 29.1025C24.3011 27.086 25.2294 25.2775 26.7018 24.1092C27.806 23.229 29.1984 22.7009 30.7028 22.7009C34.2397 22.7009 37.1044 25.5656 37.1044 29.1025Z" stroke="#143127" stroke-width="1.5" stroke-miterlimit="10" stroke-linecap="round" stroke-linejoin="round"/>
<path d="M32.4152 30.7669L29.0223 27.39" stroke="#143127" stroke-width="1.5" stroke-miterlimit="10" stroke-linecap="round" stroke-linejoin="round"/>
<path d="M32.3832 27.4381L28.9904 30.815" stroke="#292D32" stroke-width="1.5" stroke-miterlimit="10" stroke-linecap="round" stroke-linejoin="round"/>
</svg>
