<svg width="24" height="25" viewBox="0 0 24 25" fill="none" xmlns="http://www.w3.org/2000/svg">
<path d="M10 22.5H14C19 22.5 21 20.5 21 15.5V9.5C21 4.5 19 2.5 14 2.5H10C5 2.5 3 4.5 3 9.5V15.5C3 20.5 5 22.5 10 22.5Z" stroke-width="1.5" stroke-linecap="round" stroke-linejoin="round"/>
<path d="M16.5 8.07999V9.07999C16.5 9.89999 15.83 10.58 15 10.58H9C8.18 10.58 7.5 9.90999 7.5 9.07999V8.07999C7.5 7.25999 8.17 6.57999 9 6.57999H15C15.83 6.57999 16.5 7.24999 16.5 8.07999Z" stroke-width="1.5" stroke-linecap="round" stroke-linejoin="round"/>
<path d="M8.13612 14.5H8.14767" stroke-width="2" stroke-linecap="round" stroke-linejoin="round"/>
<path d="M11.9952 14.5H12.0068" stroke-width="2" stroke-linecap="round" stroke-linejoin="round"/>
<path d="M15.8543 14.5H15.8659" stroke-width="2" stroke-linecap="round" stroke-linejoin="round"/>
<path d="M8.13612 18H8.14767" stroke-width="2" stroke-linecap="round" stroke-linejoin="round"/>
<path d="M11.9952 18H12.0068" stroke-width="2" stroke-linecap="round" stroke-linejoin="round"/>
<path d="M15.8543 18H15.8659" stroke-width="2" stroke-linecap="round" stroke-linejoin="round"/>
</svg>
