<svg width="33" height="33" viewBox="0 0 33 33" fill="none" xmlns="http://www.w3.org/2000/svg">
<path d="M24.805 18.6312C24.2275 19.195 23.8975 20.0062 23.98 20.8725C24.1038 22.3575 25.465 23.4437 26.95 23.4437H29.5625V25.08C29.5625 27.9262 27.2387 30.25 24.3925 30.25H10.4912C10.9175 29.8925 11.2887 29.4525 11.5775 28.9575C12.0862 28.1325 12.375 27.1562 12.375 26.125C12.375 23.0862 9.91375 20.625 6.875 20.625C5.5825 20.625 4.38625 21.0788 3.4375 21.835V15.8263C3.4375 12.98 5.76125 10.6562 8.6075 10.6562H24.3925C27.2387 10.6562 29.5625 12.98 29.5625 15.8263V17.8063H26.785C26.015 17.8063 25.3138 18.1087 24.805 18.6312Z" stroke="#143127" stroke-width="1.5" stroke-linecap="round" stroke-linejoin="round"/>
<path d="M3.4375 17.0637V10.7801C3.4375 9.1438 4.44124 7.68624 5.96749 7.10874L16.885 2.98374C18.59 2.33749 20.4187 3.60253 20.4187 5.43128V10.6563" stroke="#143127" stroke-width="1.5" stroke-linecap="round" stroke-linejoin="round"/>
<path d="M31.0184 19.209V22.0415C31.0184 22.7978 30.4134 23.4165 29.6434 23.444H26.9484C25.4634 23.444 24.1021 22.3577 23.9784 20.8727C23.8959 20.0065 24.2259 19.1952 24.8034 18.6315C25.3121 18.109 26.0134 17.8065 26.7834 17.8065H29.6434C30.4134 17.834 31.0184 18.4527 31.0184 19.209Z" stroke="#143127" stroke-width="1.5" stroke-linecap="round" stroke-linejoin="round"/>
<path d="M9.625 16.5H19.25" stroke="#143127" stroke-width="1.5" stroke-linecap="round" stroke-linejoin="round"/>
<path d="M12.375 26.125C12.375 27.1562 12.0862 28.1325 11.5775 28.9575C11.2887 29.4525 10.9175 29.8925 10.4912 30.25C9.52875 31.1162 8.26375 31.625 6.875 31.625C4.8675 31.625 3.12125 30.5525 2.1725 28.9575C1.66375 28.1325 1.375 27.1562 1.375 26.125C1.375 24.3925 2.1725 22.8388 3.4375 21.835C4.38625 21.0788 5.5825 20.625 6.875 20.625C9.91375 20.625 12.375 23.0862 12.375 26.125Z" stroke="#292D32" stroke-width="1.5" stroke-miterlimit="10" stroke-linecap="round" stroke-linejoin="round"/>
<path d="M8.92611 26.0968H4.82861" stroke="#292D32" stroke-width="1.5" stroke-miterlimit="10" stroke-linecap="round" stroke-linejoin="round"/>
<path d="M6.875 24.0894V28.2006" stroke="#292D32" stroke-width="1.5" stroke-miterlimit="10" stroke-linecap="round" stroke-linejoin="round"/>
</svg>
