<svg width="33" height="33" viewBox="0 0 33 33" fill="none" xmlns="http://www.w3.org/2000/svg">
<path d="M11 15.675C11 16.7337 11.825 17.6 12.8287 17.6H14.8912C15.7712 17.6 16.4862 16.8437 16.4862 15.9225C16.4862 14.9187 16.0462 14.5612 15.4 14.3275L12.1 13.1725C11.44 12.9387 11 12.5813 11 11.5775C11 10.6562 11.715 9.9 12.595 9.9H14.6575C15.675 9.91375 16.5 10.7663 16.5 11.825" stroke="#143127" stroke-width="1.5" stroke-linecap="round" stroke-linejoin="round"/>
<path d="M13.75 17.6688V18.6863" stroke="#143127" stroke-width="1.5" stroke-linecap="round" stroke-linejoin="round"/>
<path d="M13.75 8.81375V9.88625" stroke="#143127" stroke-width="1.5" stroke-linecap="round" stroke-linejoin="round"/>
<path d="M13.7362 24.7225C19.8038 24.7225 24.7225 19.8038 24.7225 13.7362C24.7225 7.66871 19.8038 2.75 13.7362 2.75C7.66871 2.75 2.75 7.66871 2.75 13.7362C2.75 19.8038 7.66871 24.7225 13.7362 24.7225Z" stroke="#143127" stroke-width="1.5" stroke-linecap="round" stroke-linejoin="round"/>
<path d="M17.8475 27.335C19.085 29.0812 21.1063 30.2225 23.4163 30.2225C27.17 30.2225 30.2225 27.17 30.2225 23.4163C30.2225 21.1338 29.095 19.1125 27.3763 17.875" stroke="#292D32" stroke-width="1.5" stroke-linecap="round" stroke-linejoin="round"/>
</svg>
