<svg width="33" height="33" viewBox="0 0 33 33" fill="none" xmlns="http://www.w3.org/2000/svg">
<path d="M26.0837 30.25H6.83374C2.70874 30.25 2.70874 28.3937 2.70874 26.125V24.75C2.70874 23.9937 3.32749 23.375 4.08374 23.375H28.8337C29.59 23.375 30.2087 23.9937 30.2087 24.75V26.125C30.2087 28.3937 30.2087 30.25 26.0837 30.25Z" stroke="#143127" stroke-width="1.5" stroke-linecap="round" stroke-linejoin="round"/>
<path d="M28.49 17.875V23.375H4.49628V17.875C4.49628 12.595 8.22253 8.18125 13.1863 7.1225C13.9288 6.9575 14.6988 6.875 15.4963 6.875H17.49C18.2875 6.875 19.0713 6.9575 19.8138 7.1225C24.7775 8.195 28.49 12.595 28.49 17.875Z" stroke="#143127" stroke-width="1.5" stroke-linecap="round" stroke-linejoin="round"/>
<path d="M19.9375 6.1875C19.9375 6.5175 19.8962 6.82 19.8137 7.1225C19.0712 6.9575 18.2875 6.875 17.49 6.875H15.4963C14.6988 6.875 13.9288 6.9575 13.1863 7.1225C13.1038 6.82 13.0625 6.5175 13.0625 6.1875C13.0625 4.29 14.6025 2.75 16.5 2.75C18.3975 2.75 19.9375 4.29 19.9375 6.1875Z" stroke="#143127" stroke-width="1.5" stroke-linecap="round" stroke-linejoin="round"/>
<path d="M20.625 15.125H12.375" stroke="#143127" stroke-width="1.5" stroke-linecap="round" stroke-linejoin="round"/>
</svg>
