<svg width="34" height="33" viewBox="0 0 34 33" fill="none" xmlns="http://www.w3.org/2000/svg">
<path d="M28.1875 15.5375V9.68001C28.1875 4.13876 26.895 2.75 21.6975 2.75H11.3025C6.105 2.75 4.8125 4.13876 4.8125 9.68001V25.1625C4.8125 28.82 6.82002 29.6863 9.25377 27.0738L9.26749 27.06C10.395 25.8637 12.1137 25.96 13.09 27.2662L14.4787 29.1225" stroke="#143127" stroke-width="1.5" stroke-linecap="round" stroke-linejoin="round"/>
<path d="M22.7745 23.88H19.3487C18.5343 23.88 17.875 24.3989 17.875 25.04V30.25H22.7745V23.88V23.88Z" stroke="#143127" stroke-width="1.5" stroke-miterlimit="10" stroke-linecap="round" stroke-linejoin="round"/>
<path d="M26.2021 19.25H24.237C23.4226 19.25 22.7633 19.769 22.7633 20.4101V30.2399H27.6629V20.4101C27.6629 19.769 27.0165 19.25 26.2021 19.25Z" stroke="#143127" stroke-width="1.5" stroke-miterlimit="10" stroke-linecap="round" stroke-linejoin="round"/>
<path d="M31.0976 25.6098H27.6718V30.2399H32.5713V26.7699C32.5584 26.1288 31.8991 25.6098 31.0976 25.6098Z" stroke="#143127" stroke-width="1.5" stroke-miterlimit="10" stroke-linecap="round" stroke-linejoin="round"/>
<path d="M11 9.625H22" stroke="#143127" stroke-width="1.5" stroke-linecap="round" stroke-linejoin="round"/>
<path d="M12.375 15.125H20.625" stroke="#292D32" stroke-width="1.5" stroke-linecap="round" stroke-linejoin="round"/>
</svg>
