<svg width="33" height="33" viewBox="0 0 33 33" fill="none" xmlns="http://www.w3.org/2000/svg">
<path d="M6.05654 21.3488L12.2853 27.5775C14.8428 30.135 18.9953 30.135 21.5665 27.5775L27.6028 21.5413C30.1603 18.9838 30.1603 14.8313 27.6028 12.26L21.3603 6.04501C20.054 4.73876 18.2528 4.03751 16.4103 4.13376L9.53529 4.46376C6.78529 4.58751 4.59904 6.77376 4.46154 9.51001L4.13154 16.385C4.04904 18.2413 4.75029 20.0425 6.05654 21.3488Z" stroke="#143127" stroke-width="1.5" stroke-linecap="round" stroke-linejoin="round"/>
<path d="M13.3853 16.8112C15.2837 16.8112 16.8228 15.2722 16.8228 13.3737C16.8228 11.4753 15.2837 9.93625 13.3853 9.93625C11.4868 9.93625 9.94775 11.4753 9.94775 13.3737C9.94775 15.2722 11.4868 16.8112 13.3853 16.8112Z" stroke="#143127" stroke-width="1.5" stroke-linecap="round"/>
<path d="M18.1978 23.6862L23.6978 18.1862" stroke="#143127" stroke-width="1.5" stroke-miterlimit="10" stroke-linecap="round" stroke-linejoin="round"/>
</svg>
