<svg width="33" height="33" viewBox="0 0 33 33" fill="none" xmlns="http://www.w3.org/2000/svg">
<path d="M26.5362 10.89V17.9713C26.5362 22.2063 24.1162 24.0212 20.4862 24.0212H8.39997C7.78122 24.0212 7.18997 23.9663 6.63997 23.8425C6.29622 23.7875 5.96623 23.6913 5.66373 23.5813C3.60123 22.8113 2.34998 21.0238 2.34998 17.9713V10.89C2.34998 6.65498 4.76997 4.84003 8.39997 4.84003H20.4862C23.5662 4.84003 25.78 6.14627 26.3712 9.13002C26.4675 9.68002 26.5362 10.2437 26.5362 10.89Z" stroke="#143127" stroke-width="1.5" stroke-miterlimit="10" stroke-linecap="round" stroke-linejoin="round"/>
<path d="M30.6631 15.0151V22.0964C30.6631 26.3314 28.2431 28.1464 24.6131 28.1464H12.5268C11.5093 28.1464 10.5881 28.009 9.79061 27.7065C8.15436 27.1015 7.0406 25.8502 6.64185 23.8427C7.19185 23.9665 7.78309 24.0214 8.40184 24.0214H20.4881C24.1181 24.0214 26.5381 22.2064 26.5381 17.9714V10.8901C26.5381 10.2439 26.4831 9.66644 26.3731 9.13019C28.9856 9.68019 30.6631 11.5226 30.6631 15.0151Z" stroke="#143127" stroke-width="1.5" stroke-miterlimit="10" stroke-linecap="round" stroke-linejoin="round"/>
<path d="M14.4349 18.0674C16.4397 18.0674 18.0649 16.4421 18.0649 14.4374C18.0649 12.4326 16.4397 10.8073 14.4349 10.8073C12.4301 10.8073 10.8049 12.4326 10.8049 14.4374C10.8049 16.4421 12.4301 18.0674 14.4349 18.0674Z" stroke="#143127" stroke-width="1.5" stroke-miterlimit="10" stroke-linecap="round" stroke-linejoin="round"/>
<path d="M6.57166 11.4125V17.4625" stroke="#143127" stroke-width="1.5" stroke-miterlimit="10" stroke-linecap="round" stroke-linejoin="round"/>
<path d="M22.304 11.4129V17.4629" stroke="#143127" stroke-width="1.5" stroke-miterlimit="10" stroke-linecap="round" stroke-linejoin="round"/>
</svg>
