<svg width="24" height="25" viewBox="0 0 24 25" fill="none" xmlns="http://www.w3.org/2000/svg">
<path d="M20 14.5C21.1046 14.5 22 13.6046 22 12.5C22 11.3954 21.1046 10.5 20 10.5C18.8954 10.5 18 11.3954 18 12.5C18 13.6046 18.8954 14.5 20 14.5Z" stroke-width="1.5" stroke-linecap="round" stroke-linejoin="round"/>
<path d="M20 6.5C21.1046 6.5 22 5.60457 22 4.5C22 3.39543 21.1046 2.5 20 2.5C18.8954 2.5 18 3.39543 18 4.5C18 5.60457 18.8954 6.5 20 6.5Z" stroke-width="1.5" stroke-linecap="round" stroke-linejoin="round"/>
<path d="M20 22.5C21.1046 22.5 22 21.6046 22 20.5C22 19.3954 21.1046 18.5 20 18.5C18.8954 18.5 18 19.3954 18 20.5C18 21.6046 18.8954 22.5 20 22.5Z" stroke-width="1.5" stroke-linecap="round" stroke-linejoin="round"/>
<path d="M4 14.5C5.10457 14.5 6 13.6046 6 12.5C6 11.3954 5.10457 10.5 4 10.5C2.89543 10.5 2 11.3954 2 12.5C2 13.6046 2.89543 14.5 4 14.5Z" stroke-width="1.5" stroke-linecap="round" stroke-linejoin="round"/>
<path d="M6 12.5H18" stroke-width="1.5" stroke-linecap="round" stroke-linejoin="round"/>
<path d="M18 4.5H14C12 4.5 11 5.5 11 7.5V17.5C11 19.5 12 20.5 14 20.5H18" stroke-width="1.5" stroke-linecap="round" stroke-linejoin="round"/>
</svg>
