<svg width="28" height="29" viewBox="0 0 28 29" fill="none" xmlns="http://www.w3.org/2000/svg">
<path d="M10.5 26.1666H17.5C23.3334 26.1666 25.6667 23.8333 25.6667 18V11C25.6667 5.16665 23.3334 2.83331 17.5 2.83331H10.5C4.66671 2.83331 2.33337 5.16665 2.33337 11V18C2.33337 23.8333 4.66671 26.1666 10.5 26.1666Z" stroke="#64B6AC" stroke-width="1.75" stroke-linecap="round" stroke-linejoin="round"/>
<path d="M20.8836 11.0583C18.3403 10.8016 15.7736 10.6733 13.2186 10.6733C11.7019 10.6733 10.1853 10.7549 8.68027 10.9066L7.11694 11.0583" stroke="#64B6AC" stroke-width="1.75" stroke-linecap="round" stroke-linejoin="round"/>
<path d="M11.3287 10.2883L11.4921 9.28497C11.6087 8.56163 11.7021 8.01331 12.9971 8.01331H15.0037C16.2987 8.01331 16.3921 8.58497 16.5087 9.28497L16.6721 10.2766" stroke="#64B6AC" stroke-width="1.75" stroke-linecap="round" stroke-linejoin="round"/>
<path d="M19.2385 11.1517L18.7368 18.8517C18.6551 20.0533 18.5851 20.9867 16.4501 20.9867H11.5385C9.40345 20.9867 9.33345 20.0533 9.25178 18.8517L8.75012 11.1517" stroke="#64B6AC" stroke-width="1.75" stroke-linecap="round" stroke-linejoin="round"/>
</svg>
