<svg width="29" height="28" viewBox="0 0 29 28" fill="none" xmlns="http://www.w3.org/2000/svg">
<path d="M10.9997 25.6667H17.9997C23.833 25.6667 26.1663 23.3333 26.1663 17.5V10.5C26.1663 4.66668 23.833 2.33334 17.9997 2.33334H10.9997C5.16634 2.33334 2.83301 4.66668 2.83301 10.5V17.5C2.83301 23.3333 5.16634 25.6667 10.9997 25.6667Z" stroke="#64B6AC" stroke-width="1.75" stroke-linecap="round" stroke-linejoin="round"/>
<path d="M15.4254 9.53192L9.43545 15.8721C9.20928 16.1129 8.9904 16.5871 8.94662 16.9154L8.67667 19.2793C8.58183 20.133 9.19469 20.7166 10.041 20.5707L12.3903 20.1694C12.7186 20.1111 13.1783 19.8703 13.4045 19.6222L19.3945 13.282C20.4305 12.1876 20.8974 10.94 19.285 9.41518C17.6799 7.90491 16.4615 8.43752 15.4254 9.53192Z" stroke="#64B6AC" stroke-width="1.75" stroke-miterlimit="10" stroke-linecap="round" stroke-linejoin="round"/>
<path d="M14.4258 10.5898C14.7395 12.6035 16.3738 14.143 18.4021 14.3473" stroke="#64B6AC" stroke-width="1.75" stroke-miterlimit="10" stroke-linecap="round" stroke-linejoin="round"/>
</svg>
