<svg width="36" height="36" viewBox="0 0 36 36" fill="none" xmlns="http://www.w3.org/2000/svg">
<path d="M12.9 35H23.1C31.6001 35 35.0001 31.6 35.0001 23.1V12.9C35.0001 4.39996 31.6001 0.999954 23.1 0.999954H12.9C4.40001 0.999954 1 4.39996 1 12.9V23.1C1 31.6 4.40001 35 12.9 35Z" stroke="#64B6AC" stroke-width="1.2" stroke-linecap="round" stroke-linejoin="round"/>
<path d="M23.0576 27.2083V21.6833" stroke="#64B6AC" stroke-miterlimit="10" stroke-linecap="round" stroke-linejoin="round"/>
<path d="M23.0576 11.5542V8.79167" stroke="#64B6AC" stroke-miterlimit="10" stroke-linecap="round" stroke-linejoin="round"/>
<path d="M23.0576 18.9208C25.0918 18.9208 26.7409 17.2718 26.7409 15.2375C26.7409 13.2033 25.0918 11.5542 23.0576 11.5542C21.0234 11.5542 19.3743 13.2033 19.3743 15.2375C19.3743 17.2718 21.0234 18.9208 23.0576 18.9208Z" stroke="#64B6AC" stroke-miterlimit="10" stroke-linecap="round" stroke-linejoin="round"/>
<path d="M12.9426 27.2083V24.4458" stroke="#64B6AC" stroke-miterlimit="10" stroke-linecap="round" stroke-linejoin="round"/>
<path d="M12.9426 14.3167V8.79167" stroke="#64B6AC" stroke-miterlimit="10" stroke-linecap="round" stroke-linejoin="round"/>
<path d="M12.9431 24.4458C14.9773 24.4458 16.6264 22.7968 16.6264 20.7625C16.6264 18.7283 14.9773 17.0792 12.9431 17.0792C10.9089 17.0792 9.25977 18.7283 9.25977 20.7625C9.25977 22.7968 10.9089 24.4458 12.9431 24.4458Z" stroke="#64B6AC" stroke-miterlimit="10" stroke-linecap="round" stroke-linejoin="round"/>
</svg>
