<svg width="24" height="25" viewBox="0 0 24 25" fill="none" xmlns="http://www.w3.org/2000/svg">
<path d="M21.6698 14.8L21.2698 19.8C21.1198 21.33 20.9998 22.5 18.2898 22.5H5.70975C2.99975 22.5 2.87975 21.33 2.72975 19.8L2.32975 14.8C2.24975 13.97 2.50975 13.2 2.97975 12.61C2.98975 12.6 2.98975 12.6 2.99975 12.59C3.54975 11.92 4.37975 11.5 5.30975 11.5H18.6898C19.6198 11.5 20.4398 11.92 20.9798 12.57C20.9898 12.58 20.9998 12.59 20.9998 12.6C21.4898 13.19 21.7598 13.96 21.6698 14.8Z" stroke="#BDDEDA" stroke-width="1.5" stroke-miterlimit="10"/>
<path d="M3.5 11.93V6.78C3.5 3.38 4.35 2.53 7.75 2.53H9.02C10.29 2.53 10.58 2.91 11.06 3.55L12.33 5.25C12.65 5.67 12.84 5.93 13.69 5.93H16.24C19.64 5.93 20.49 6.78 20.49 10.18V11.97" stroke="#BDDEDA" stroke-width="1.5" stroke-miterlimit="10" stroke-linecap="round" stroke-linejoin="round"/>
<path d="M9.42999 17.5H14.57" stroke="#BDDEDA" stroke-width="1.5" stroke-miterlimit="10" stroke-linecap="round" stroke-linejoin="round"/>
</svg>
