<svg width="10" height="11" viewBox="0 0 10 11" fill="none" xmlns="http://www.w3.org/2000/svg">
<path d="M1.42857 8.28569H0.714286C0.319714 8.28569 0 8.70132 0 9.21426C0 9.7272 0.319714 10.1428 0.714286 10.1428H1.42857C1.82314 10.1428 2.14286 9.7272 2.14286 9.21426C2.14286 8.70132 1.82314 8.28569 1.42857 8.28569ZM1.42857 4.5714H0.714286C0.319714 4.5714 0 4.98703 0 5.49997C0 6.01292 0.319714 6.42855 0.714286 6.42855H1.42857C1.82314 6.42855 2.14286 6.01292 2.14286 5.49997C2.14286 4.98703 1.82314 4.5714 1.42857 4.5714ZM1.42857 0.857117H0.714286C0.319714 0.857117 0 1.27275 0 1.78569C0 2.29863 0.319714 2.71426 0.714286 2.71426H1.42857C1.82314 2.71426 2.14286 2.29863 2.14286 1.78569C2.14286 1.27275 1.82314 0.857117 1.42857 0.857117ZM4.28571 2.71426H9.28572C9.68029 2.71426 10 2.29863 10 1.78569C10 1.27275 9.68029 0.857117 9.28572 0.857117H4.28571C3.89114 0.857117 3.57143 1.27275 3.57143 1.78569C3.57143 2.29863 3.89114 2.71426 4.28571 2.71426ZM9.28572 4.5714H4.28571C3.89114 4.5714 3.57143 4.98703 3.57143 5.49997C3.57143 6.01292 3.89114 6.42855 4.28571 6.42855H9.28572C9.68029 6.42855 10 6.01292 10 5.49997C10 4.98703 9.68029 4.5714 9.28572 4.5714ZM9.28572 8.28569H4.28571C3.89114 8.28569 3.57143 8.70132 3.57143 9.21426C3.57143 9.7272 3.89114 10.1428 4.28571 10.1428H9.28572C9.68029 10.1428 10 9.7272 10 9.21426C10 8.70132 9.68029 8.28569 9.28572 8.28569Z" fill="#143127"/>
</svg>
