<svg width="29" height="28" viewBox="0 0 29 28" fill="none" xmlns="http://www.w3.org/2000/svg">
<path d="M10.9997 25.6667H17.9997C23.833 25.6667 26.1663 23.3333 26.1663 17.5V10.5C26.1663 4.66668 23.833 2.33334 17.9997 2.33334H10.9997C5.16634 2.33334 2.83301 4.66668 2.83301 10.5V17.5C2.83301 23.3333 5.16634 25.6667 10.9997 25.6667Z" stroke="#64B6AC" stroke-width="1.75" stroke-linecap="round" stroke-linejoin="round"/>
<path d="M20.5 10C20.5 10.495 20.0976 10.9 19.6058 10.9H11.3942C10.9024 10.9 10.5 10.495 10.5 10C10.5 9.50501 10.9024 9.10001 11.3942 9.10001H19.6058C20.0976 9.10001 20.5 9.50501 20.5 10Z" fill="#64B6AC"/>
<path d="M21.5 14C21.5 14.495 21.0574 14.9 20.5164 14.9H11.4836C10.9426 14.9 10.5 14.495 10.5 14C10.5 13.505 10.9426 13.1 11.4836 13.1H20.5164C21.0574 13.1 21.5 13.505 21.5 14Z" fill="#64B6AC"/>
<path d="M17.5 18C17.5 18.495 17.2183 18.9 16.8741 18.9H11.1259C10.7817 18.9 10.5 18.495 10.5 18C10.5 17.505 10.7817 17.1 11.1259 17.1H16.8741C17.2183 17.1 17.5 17.505 17.5 18Z" fill="#64B6AC"/>
<path d="M8.39998 9.10001C8.1646 9.10001 7.94308 9.19693 7.77692 9.36309C7.61077 9.52924 7.5 9.76463 7.5 10C7.5 10.2354 7.59692 10.4708 7.76308 10.6369C7.92923 10.8031 8.16462 10.9 8.4 10.9C8.63538 10.9 8.87077 10.8031 9.03692 10.6369C9.20308 10.4708 9.3 10.2354 9.3 10C9.3 9.76463 9.20308 9.52924 9.03692 9.36309C8.88462 9.19693 8.63536 9.10001 8.39998 9.10001Z" fill="#64B6AC"/>
<path d="M8.39998 13.1C8.1646 13.1 7.94308 13.1969 7.77692 13.3631C7.61077 13.5292 7.5 13.7646 7.5 14C7.5 14.2354 7.59692 14.4708 7.76308 14.6369C7.92923 14.8031 8.16462 14.9 8.4 14.9C8.63538 14.9 8.87077 14.8031 9.03692 14.6369C9.20308 14.4708 9.3 14.2354 9.3 14C9.3 13.7646 9.20308 13.5292 9.03692 13.3631C8.88462 13.1969 8.63536 13.1 8.39998 13.1Z" fill="#64B6AC"/>
<path d="M8.39998 17.1C8.1646 17.1 7.94308 17.1969 7.77692 17.3631C7.61077 17.5292 7.5 17.7646 7.5 18C7.5 18.2354 7.59692 18.4708 7.76308 18.6369C7.92923 18.8031 8.16462 18.9 8.4 18.9C8.63538 18.9 8.87077 18.8031 9.03692 18.6369C9.20308 18.4708 9.3 18.2354 9.3 18C9.3 17.7646 9.20308 17.5292 9.03692 17.3631C8.88462 17.1969 8.63536 17.1 8.39998 17.1Z" fill="#64B6AC"/>
</svg>
