<svg width="39" height="39" viewBox="0 0 39 39" fill="none" xmlns="http://www.w3.org/2000/svg">
<path d="M35.5041 9.89752V13.7705C35.5041 16.2992 33.9037 17.8996 31.375 17.8996H25.9016V6.7127C25.9016 4.93625 27.358 3.49588 29.1344 3.49588C30.8789 3.51188 32.4793 4.21606 33.6316 5.36836C34.7839 6.53666 35.5041 8.13707 35.5041 9.89752Z" stroke="#143127" stroke-width="1.5" stroke-miterlimit="10" stroke-linecap="round" stroke-linejoin="round"/>
<path d="M3.49585 11.4979V33.9037C3.49585 35.232 5.00023 35.9842 6.0565 35.184L8.7932 33.1355C9.43337 32.6553 10.3296 32.7194 10.9057 33.2955L13.5624 35.9682C14.1866 36.5924 15.2108 36.5924 15.835 35.9682L18.5237 33.2795C19.0838 32.7194 19.9801 32.6553 20.6042 33.1355L23.3409 35.184C24.3972 35.9682 25.9016 35.216 25.9016 33.9037V6.6967C25.9016 4.93625 27.342 3.49588 29.1024 3.49588H11.4979H9.89749C5.09626 3.49588 3.49585 6.36061 3.49585 9.89752V11.4979Z" stroke="#143127" stroke-width="1.5" stroke-miterlimit="10" stroke-linecap="round" stroke-linejoin="round"/>
<path d="M10.2976 16.2992H19.0999" stroke="#143127" stroke-width="1.5" stroke-linecap="round" stroke-linejoin="round"/>
</svg>
