<svg width="29" height="28" viewBox="0 0 29 28" fill="none" xmlns="http://www.w3.org/2000/svg">
<path d="M10.9997 25.6667H17.9997C23.833 25.6667 26.1663 23.3333 26.1663 17.5V10.5C26.1663 4.66668 23.833 2.33334 17.9997 2.33334H10.9997C5.16634 2.33334 2.83301 4.66668 2.83301 10.5V17.5C2.83301 23.3333 5.16634 25.6667 10.9997 25.6667Z" stroke="#64B6AC" stroke-width="1.75" stroke-linecap="round" stroke-linejoin="round"/>
<g clip-path="url(#clip0_1069_1911)">
<path d="M11.5191 9.07425C12.9597 8.20232 14.7678 7.96687 16.4734 8.58768C18.9947 9.50536 20.4786 12.0007 20.2316 14.5534L21.6264 15.0611C22.1237 11.7443 20.2393 8.42574 16.966 7.23434C14.9432 6.49809 12.806 6.72605 11.0544 7.68137C9.64405 8.40097 10.7511 9.57017 11.5191 9.07425ZM18.0214 20.2815C18.8999 19.8161 18.2543 18.4317 17.5093 18.9141C16.0648 19.7975 14.2466 20.0383 12.5327 19.4145C10.0111 18.4967 8.52684 16.001 8.7742 13.4486L7.37915 12.9408C6.88246 16.2578 8.76648 19.5763 12.0403 20.7678C14.0898 21.5138 16.2567 21.2698 18.0214 20.2815ZM18.845 14.7259L19.3623 17.4085C19.4376 17.7988 19.75 17.9133 20.0596 17.6643L22.2141 15.931C22.5235 15.6815 22.4717 15.3704 22.0974 15.2359L19.3863 14.2627C19.0124 14.1277 18.7699 14.3352 18.845 14.7259ZM10.1469 13.2926L9.61066 10.5797C9.53372 10.1896 9.22094 10.0766 8.91213 10.3275L6.79145 12.0498C6.48327 12.3005 6.53495 12.6157 6.90838 12.7535L9.61085 13.7503C9.98389 13.8873 10.2238 13.6819 10.1469 13.2926Z" fill="#64B6AC"/>
</g>
<defs>
<clipPath id="clip0_1069_1911">
<rect width="16" height="16" fill="white" transform="translate(24.7539 9.21863) rotate(110)"/>
</clipPath>
</defs>
</svg>
