<svg width="36" height="36" viewBox="0 0 36 36" fill="none" xmlns="http://www.w3.org/2000/svg">
<path d="M12.9 35.0001H23.1C31.6001 35.0001 35.0001 31.6001 35.0001 23.1V12.9C35.0001 4.40001 31.6001 1 23.1 1H12.9C4.40001 1 1 4.40001 1 12.9V23.1C1 31.6001 4.40001 35.0001 12.9 35.0001Z" stroke="#64B6AC" stroke-width="1.2" stroke-linecap="round" stroke-linejoin="round"/>
<g clip-path="url(#clip0_10_868)">
<path d="M26.4432 18.8602C26.1904 18.8602 25.9856 18.6553 25.9856 18.4026C25.9856 14.0352 22.4324 10.482 18.0649 10.482C16.35 10.482 14.718 11.0208 13.3456 12.0404C13.143 12.1914 12.8561 12.1489 12.7055 11.9459C12.5548 11.7431 12.5971 11.4562 12.8 11.3056C14.3314 10.1681 16.1519 9.5667 18.0649 9.5667C22.937 9.5667 26.9009 13.5303 26.9009 18.4026C26.9009 18.6552 26.696 18.8602 26.4432 18.8602Z" fill="#64B6AC"/>
<path d="M16.1921 13.7404C16.1388 13.7404 16.085 13.7311 16.0321 13.7113L12.2585 12.3032L13.0946 8.3629C13.1469 8.1156 13.3898 7.95759 13.6372 8.01015C13.8845 8.06251 14.0423 8.30543 13.9897 8.55273L13.3175 11.7215L16.3521 12.8539C16.5888 12.9421 16.7092 13.2057 16.6208 13.4426C16.5521 13.6267 16.3775 13.7404 16.1921 13.7404Z" fill="#64B6AC"/>
<path d="M17.9351 26.4333C13.0628 26.4333 9.09888 22.4695 9.09888 17.5974C9.09888 17.3446 9.30372 17.1398 9.55652 17.1398C9.80933 17.1398 10.0142 17.3446 10.0142 17.5974C10.0142 21.9647 13.5675 25.518 17.9351 25.518C19.65 25.518 21.2817 24.9792 22.6541 23.9598C22.857 23.8091 23.1436 23.8513 23.2943 24.0544C23.4449 24.2573 23.4027 24.5439 23.1998 24.6946C21.6685 25.8319 19.8478 26.4333 17.9351 26.4333Z" fill="#64B6AC"/>
<path d="M22.4581 28.0001C22.4266 28.0001 22.3947 27.9966 22.3625 27.9898C22.1152 27.9374 21.9574 27.6945 22.01 27.4472L22.6823 24.2784L19.6476 23.146C19.4109 23.0577 19.2905 22.7941 19.3789 22.5572C19.4671 22.3203 19.7303 22.1991 19.9676 22.2885L23.7413 23.6964L22.9053 27.6367C22.8597 27.8525 22.6697 28.0001 22.4581 28.0001Z" fill="#64B6AC"/>
</g>
<defs>
<clipPath id="clip0_10_868">
<rect width="20" height="20" fill="white" transform="translate(8 8.00006)"/>
</clipPath>
</defs>
</svg>
