<svg width="18" height="17" viewBox="0 0 18 17" fill="none" xmlns="http://www.w3.org/2000/svg">
<path d="M7.30725 3.71992C7.94932 2.11924 8.27036 1.31889 8.79193 1.20797C8.92908 1.1788 9.07083 1.1788 9.20797 1.20797C9.72955 1.31889 10.0506 2.11924 10.6927 3.71992C11.0578 4.6302 11.2404 5.08535 11.582 5.39491C11.6778 5.48174 11.7818 5.55907 11.8926 5.62582C12.2874 5.8638 12.7803 5.90794 13.7661 5.99623C15.4348 6.14568 16.2692 6.2204 16.524 6.69615C16.5768 6.79468 16.6127 6.90136 16.6302 7.01175C16.7146 7.54478 16.1012 8.10284 14.8744 9.21896L14.5338 9.5289C13.9602 10.0507 13.6735 10.3116 13.5076 10.6372C13.4081 10.8325 13.3414 11.0429 13.3101 11.2598C13.258 11.6215 13.342 12 13.5099 12.757L13.5699 13.0275C13.8711 14.385 14.0217 15.0638 13.8337 15.3974C13.6649 15.6971 13.3538 15.889 13.0102 15.9054C12.6277 15.9236 12.0887 15.4844 11.0107 14.606C10.3005 14.0273 9.94542 13.738 9.55121 13.6249C9.19097 13.5216 8.80894 13.5216 8.44869 13.6249C8.05448 13.738 7.69938 14.0273 6.98917 14.606C5.91119 15.4844 5.37221 15.9236 4.98968 15.9054C4.64609 15.889 4.33504 15.6971 4.16617 15.3974C3.97818 15.0638 4.12878 14.385 4.42997 13.0275L4.48998 12.757C4.65794 12 4.74191 11.6215 4.6898 11.2598C4.65854 11.0429 4.59182 10.8325 4.49232 10.6372C4.32645 10.3116 4.03968 10.0507 3.46613 9.5289L3.12546 9.21896C1.89867 8.10284 1.28527 7.54478 1.36975 7.01175C1.38724 6.90136 1.42312 6.79468 1.47589 6.69615C1.73069 6.2204 2.56507 6.14568 4.23384 5.99623C5.21962 5.90794 5.71251 5.8638 6.10735 5.62582C6.2181 5.55907 6.32211 5.48174 6.41793 5.39491C6.75954 5.08535 6.94211 4.6302 7.30725 3.71992Z" fill="#D2EBE8" stroke="#D2EBE8" stroke-width="2"/>
</svg>
